# xmcd
#
# Track frame offsets:
#	150
#	11662
#	23985
#	35562
#	46392
#	63712
#	75795
#	89197
#	102975
#	122640
#	134570
#	144112
#	157240
#	168067
#	183705
#	196002
#	211045
#	223187
#
# Disc length: 3127 seconds
#
# Revision: 1
# Processed by: cddbd v1.5.1PL0 Copyright (c) Steve Scherf et al.
# Submitted via: CDex 1.50Beta5
#
DISCID=fe0c3512
DTITLE=さまざまなアーティスト - FRENCH POPS COLLECTION DISC1
DYEAR=1900
DGENRE=
TTITLE0=フランス・ギャル/夢見るシャンソン人形
TTITLE1=フランス・ギャル/天使のためいき
TTITLE2=マージョリー・ノエル/そよ風に乗って
TTITLE3=マージョリー・ノエル/春のときめき
TTITLE4=ヴィッキー/マミー・ブルー
TTITLE5=ヴィッキー/カーザ・ビアンカ
TTITLE6=スール・スーリール/ドミニク
TTITLE7=スウィングル・シンガーズ/恋するガリア
TTITLE8=ジェーン・バーキン&セルジュ・ゲンスブール/ジュ・テーム・モア・ノン・プリュ
TTITLE9=クロード・フランソワ/ドナ・ドナ・ドーナ
TTITLE10=ミレーユ・ダルク/太陽のミレーユ
TTITLE11=ジョニー・アリディ/夜をかえして
TTITLE12=ダリオ・モレノ/幸福を売る男
TTITLE13=ダニエル・ジェラール/バタフライ
TTITLE14=フリーダ・ボッカーラ/リラの季節
TTITLE15=スウィングル・シンガーズ/G線上のアリア
TTITLE16=ジョニー・アリディ/電話でツイスト
TTITLE17=ジョニー・アリディ/ロックンロール・ミュージック
EXTD=
EXTT0=
EXTT1=
EXTT2=
EXTT3=
EXTT4=
EXTT5=
EXTT6=
EXTT7=
EXTT8=
EXTT9=
EXTT10=
EXTT11=
EXTT12=
EXTT13=
EXTT14=
EXTT15=
EXTT16=
EXTT17=
PLAYORDER=
